<svg width="46" height="27" viewBox="0 0 46 27" fill="none" xmlns="http://www.w3.org/2000/svg">
<rect y="0.181641" width="46" height="26" rx="4" fill="#F2F2F2"/>
<path d="M26.9255 6.10693H19.0498V20.2564H26.9255V6.10693Z" fill="#FF5A00"/>
<path d="M19.5745 13.1816C19.5745 10.3069 20.9259 7.75543 22.9997 6.10688C21.4735 4.90688 19.5482 4.18164 17.4482 4.18164C12.4735 4.18164 8.44824 8.20688 8.44824 13.1816C8.44824 18.1564 12.4735 22.1816 17.4482 22.1816C19.5482 22.1816 21.4735 21.4564 22.9997 20.2564C20.923 18.6312 19.5745 16.0564 19.5745 13.1816Z" fill="#EB001B"/>
<path d="M37.5515 13.1816C37.5515 18.1564 33.5262 22.1816 28.5515 22.1816C26.4515 22.1816 24.5262 21.4564 23 20.2564C25.1 18.6049 26.4252 16.0564 26.4252 13.1816C26.4252 10.3069 25.0738 7.75543 23 6.10688C24.5233 4.90688 26.4485 4.18164 28.5485 4.18164C33.5262 4.18164 37.5515 8.2331 37.5515 13.1816Z" fill="#F79E1B"/>
</svg>
