<svg width="46" height="27" viewBox="0 0 46 27" fill="none" xmlns="http://www.w3.org/2000/svg">
<rect y="0.181641" width="46" height="26" rx="4" fill="#F2F2F2"/>
<g clip-path="url(#clip0_425_2414)">
<path d="M20.528 19.0084H17.5244L19.4031 7.39209H22.4065L20.528 19.0084Z" fill="#00579F"/>
<path d="M31.4163 7.67619C30.8238 7.44115 29.8842 7.18164 28.7223 7.18164C25.7561 7.18164 23.6674 8.76336 23.6545 11.0247C23.6299 12.6932 25.15 13.6199 26.287 14.1762C27.449 14.7446 27.844 15.1157 27.844 15.6224C27.8322 16.4006 26.905 16.7593 26.0402 16.7593C24.8411 16.7593 24.1985 16.5744 23.2221 16.1414L22.8266 15.9558L22.4062 18.5634C23.1107 18.8844 24.4086 19.1692 25.7561 19.1816C28.9077 19.1816 30.9595 17.6244 30.9838 15.2145C30.9958 13.8922 30.1931 12.8789 28.4626 12.051C27.4121 11.5194 26.7687 11.1611 26.7687 10.6172C26.781 10.1228 27.3128 9.61646 28.4987 9.61646C29.4752 9.59166 30.1926 9.82637 30.7361 10.0612L31.0078 10.1846L31.4163 7.67619Z" fill="#00579F"/>
<path d="M35.4088 14.8932C35.6562 14.2258 36.608 11.643 36.608 11.643C36.5955 11.6678 36.8548 10.9633 37.0032 10.5309L37.2131 11.5318C37.2131 11.5318 37.7819 14.3124 37.9054 14.8932C37.436 14.8932 36.0021 14.8932 35.4088 14.8932ZM39.1164 7.39209H36.7931C36.0766 7.39209 35.5323 7.602 35.2232 8.3559L30.7617 19.0082H33.9133C33.9133 19.0082 34.4322 17.5745 34.5437 17.2657C34.8895 17.2657 37.9553 17.2657 38.4001 17.2657C38.4863 17.6736 38.7585 19.0082 38.7585 19.0082H41.5395L39.1164 7.39209Z" fill="#00579F"/>
<path d="M15.0162 7.39209L12.0747 15.3133L11.7533 13.7068C11.2095 11.8531 9.5039 9.83907 7.60059 8.83764L10.2949 18.9961H13.4712L18.1923 7.39209H15.0162Z" fill="#00579F"/>
<path d="M9.3429 7.39209H4.51038L4.46094 7.6268C8.23061 8.59078 10.7272 10.9144 11.7529 13.7073L10.7024 8.36855C10.5294 7.62664 9.99792 7.41656 9.3429 7.39209Z" fill="#FAA61A"/>
</g>
<defs>
<clipPath id="clip0_425_2414">
<rect width="37.0784" height="12" fill="white" transform="translate(4.46094 7.18164)"/>
</clipPath>
</defs>
</svg>
