<svg width="46" height="27" viewBox="0 0 46 27" fill="none" xmlns="http://www.w3.org/2000/svg">
<rect y="0.181641" width="46" height="26" rx="4" fill="#F2F2F2"/>
<path fill-rule="evenodd" clip-rule="evenodd" d="M8.06002 8.18335C8.38754 8.18139 9.3609 8.09372 9.7732 9.48523C10.0509 10.4226 10.4933 11.958 11.1004 14.0914H11.3477C11.9987 11.8422 12.4459 10.3068 12.6894 9.48523C13.106 8.07923 14.1474 8.18337 14.564 8.18337L17.7782 8.18338V18.1816H14.5022V12.2895H14.2826L12.4564 18.1816H9.99169L8.16552 12.2851H7.94585V18.1816H4.66992V8.18338L8.06002 8.18335ZM22.4823 8.18338V14.0799H22.7437L24.965 9.23123C25.3962 8.26633 26.3153 8.18338 26.3153 8.18338H29.4854V18.1816H26.141V12.2851H25.8797L23.7019 17.1338C23.2707 18.0943 22.3081 18.1816 22.3081 18.1816H19.138V8.18338H22.4823ZM41.0449 12.9346C40.5784 14.2566 39.1134 15.2033 37.4915 15.2033H33.9843V18.1816H30.804V12.9346H41.0449Z" fill="#0F754E"/>
<path fill-rule="evenodd" clip-rule="evenodd" d="M37.6444 8.18359H30.6367C30.8035 10.4095 32.7204 12.3151 34.7049 12.3151H41.2654C41.644 10.4651 40.3407 8.18359 37.6444 8.18359Z" fill="url(#paint0_linear_425_2408)"/>
<defs>
<linearGradient id="paint0_linear_425_2408" x1="41.3297" y1="10.7825" x2="30.6367" y2="10.7825" gradientUnits="userSpaceOnUse">
<stop stop-color="#1F5CD7"/>
<stop offset="1" stop-color="#02AEFF"/>
</linearGradient>
</defs>
</svg>
