<svg width="46" height="27" viewBox="0 0 46 27" fill="none" xmlns="http://www.w3.org/2000/svg">
<rect y="0.181641" width="46" height="26" rx="4" fill="#F2F2F2"/>
<path fill-rule="evenodd" clip-rule="evenodd" d="M12.7857 18.6789C14.0316 18.6789 15.3833 19.1052 16.8799 20.4284C17.0298 20.5609 17.2294 20.3962 17.0983 20.2316C15.628 18.3786 14.268 18.0258 12.9117 17.7278C11.2523 17.3626 10.3992 16.4308 9.80449 15.4079C9.68629 15.2047 9.63294 15.2405 9.62236 15.5022C9.60902 15.8219 9.63156 16.2455 9.70331 16.6621C9.63616 16.6649 9.56901 16.6644 9.50094 16.6644C7.12777 16.6644 5.20347 14.7438 5.20347 12.3748C5.20347 10.0062 7.12777 8.08605 9.5014 8.08605C11.8746 8.08605 13.7989 10.0062 13.7989 12.3748C13.7989 12.5436 13.7906 12.7105 13.7713 12.8738C13.4576 12.8172 12.8399 12.8108 12.4067 12.848C12.2439 12.8623 12.2669 12.9382 12.3901 12.9603C13.8108 13.2164 14.7863 14.0953 15.0098 15.6899C15.0144 15.7267 15.0632 15.7372 15.082 15.7055C15.6861 14.6997 16.0043 13.5481 16.0023 12.3748C16.0023 8.79202 13.0915 5.88672 9.5014 5.88672C5.91082 5.88672 3 8.79156 3 12.3748C3 15.9585 5.91082 18.8638 9.5014 18.8638C10.4534 18.8638 11.399 18.6789 12.7857 18.6789ZM13.2695 16.3232C13.5588 16.5669 13.6466 16.8571 13.494 17.0618C13.4089 17.174 13.2709 17.2361 13.1053 17.2361C12.9438 17.2362 12.7874 17.1795 12.6633 17.0761C12.4003 16.8466 12.323 16.475 12.4945 16.2639C12.5617 16.1811 12.6707 16.1355 12.8013 16.1355C12.96 16.1355 13.1265 16.2022 13.2695 16.3232ZM14.6042 15.7032C14.6465 15.9874 14.5568 16.1052 14.4662 16.1052C14.3673 16.1052 14.2436 15.9902 14.0978 15.7625C13.9534 15.5381 13.9005 15.2805 13.9723 15.1504C14.0192 15.0644 14.1181 15.0267 14.2427 15.074C14.4842 15.1646 14.5784 15.5335 14.6042 15.7032ZM23.6158 14.2177L22.8662 13.3176C22.8486 13.2964 22.8374 13.2706 22.834 13.2433C22.8305 13.2159 22.835 13.1882 22.8467 13.1632C22.8585 13.1383 22.8772 13.1173 22.9005 13.1026C22.9238 13.0879 22.9508 13.0802 22.9784 13.0803H24.5462C24.6208 12.8586 24.6631 12.6218 24.6631 12.3752C24.6631 11.2484 23.8223 10.2766 22.6689 10.2766C21.5154 10.2766 20.6747 11.2484 20.6747 12.3752C20.6747 13.502 21.5154 14.4605 22.6689 14.4605C23.0184 14.4605 23.338 14.3717 23.6158 14.2177ZM27.0073 15.7377C27.0887 15.8279 27.022 15.9723 26.8992 15.9723H25.1883C25.1539 15.9723 25.1199 15.9648 25.0888 15.9502C25.0576 15.9357 25.03 15.9145 25.008 15.8881L24.7183 15.5399C24.1081 15.9357 23.3962 16.1459 22.6689 16.1452C20.5859 16.1452 18.8916 14.4541 18.8916 12.3752C18.8916 10.2964 20.5859 8.60529 22.6689 8.60529C24.7518 8.60529 26.4462 10.2964 26.4462 12.3752C26.4462 13.1249 26.2254 13.8231 25.846 14.4108L27.0073 15.7377ZM42.8142 8.7796H41.4174C41.3683 8.77973 41.3212 8.79929 41.2865 8.83403C41.2518 8.86876 41.2322 8.91583 41.2321 8.96495V15.7869C41.2321 15.8895 41.3149 15.9723 41.4174 15.9723H42.8142C42.9168 15.9723 43 15.8895 43 15.7869V8.96449C43 8.91521 42.9804 8.86795 42.9456 8.83311C42.9107 8.79826 42.8635 8.7796 42.8142 8.7796ZM40.464 8.7796H38.9021C38.8625 8.77945 38.8238 8.79201 38.7917 8.81543C38.7597 8.83885 38.736 8.8719 38.7241 8.90976L37.4879 12.9414L36.1288 8.90516C36.1164 8.86834 36.0927 8.83636 36.0611 8.81375C36.0295 8.79113 35.9915 8.77903 35.9527 8.77914H34.8627C34.8237 8.779 34.7857 8.79109 34.7541 8.8137C34.7224 8.83631 34.6986 8.8683 34.6861 8.90516L33.3275 12.9414L32.0912 8.90976C32.0794 8.87182 32.0557 8.83866 32.0237 8.81515C31.9917 8.79164 31.9529 8.77902 31.9132 8.77914H30.3509C30.3215 8.77919 30.2926 8.78618 30.2665 8.79953C30.2403 8.81287 30.2177 8.83221 30.2005 8.85595C30.1832 8.87947 30.1719 8.90679 30.1674 8.9356C30.1629 8.96441 30.1654 8.99388 30.1747 9.02152L32.4697 15.8472C32.495 15.9226 32.5663 15.9732 32.6459 15.9732H33.8858C33.9658 15.9732 34.0367 15.9226 34.062 15.8476L35.4077 11.8597L36.7529 15.8472C36.7782 15.9226 36.8495 15.9732 36.9291 15.9732H38.1695C38.2495 15.9732 38.3203 15.9226 38.3456 15.8472L40.6406 9.02152C40.6499 8.9939 40.6524 8.96447 40.648 8.93567C40.6436 8.90688 40.6324 8.87954 40.6153 8.85595C40.598 8.83217 40.5753 8.81282 40.5491 8.79947C40.5229 8.78612 40.4934 8.77962 40.464 8.7796ZM29.5833 8.96495V15.7869C29.5833 15.8895 29.5005 15.9723 29.3975 15.9723H28.0012C27.952 15.9723 27.9048 15.9528 27.8699 15.918C27.8351 15.8833 27.8155 15.8361 27.8153 15.7869V8.96449C27.8153 8.86193 27.8981 8.77868 28.0012 8.77868H29.3975C29.5 8.77868 29.5833 8.86193 29.5833 8.96495Z" fill="#FF8C00"/>
</svg>
