<svg width="12" height="14" viewBox="0 0 12 14" fill="none" xmlns="http://www.w3.org/2000/svg">
<path d="M9.04637 7.79958H2.95434C2.82742 7.79958 2.75127 7.90111 2.75127 8.00265V8.81492C2.75127 8.94179 2.82742 9.01799 2.95434 9.01799H9.04637C9.14791 9.01799 9.24944 8.94179 9.24944 8.81492V8.00265C9.24944 7.90111 9.14791 7.79958 9.04637 7.79958ZM10.4678 0.641434L9.37632 1.42832L8.3864 0.742968C7.95488 0.438366 7.39645 0.438366 6.96493 0.742968L6.00035 1.42832L5.0104 0.742968C4.80733 0.590667 4.5535 0.514517 4.29966 0.514517C4.02044 0.514517 3.79199 0.590667 3.58892 0.742968L2.59897 1.42832L1.50748 0.641434C0.999807 0.286065 0.314453 0.641434 0.314453 1.25064V12.7494C0.314453 13.3332 0.999807 13.7139 1.50748 13.3586L2.59897 12.5463L3.58892 13.2571C4.02044 13.5617 4.57888 13.5617 5.0104 13.2571L6.00035 12.5463L6.96493 13.2571C7.39645 13.5617 7.95488 13.5617 8.3864 13.2571L9.37632 12.5463L10.4678 13.3586C10.9755 13.7139 11.6863 13.3586 11.6863 12.7494V1.25064C11.6863 0.641434 10.9755 0.286065 10.4678 0.641434ZM10.4678 11.8356L9.37632 11.0487L7.67566 12.2671L5.97497 11.0487L4.29966 12.2671L2.59897 11.0487L1.53286 11.8356V2.16444L2.59897 2.95133L4.29966 1.73292L6.00035 2.95133L7.67566 1.73292L9.37632 2.95133L10.4678 2.16444V11.8356ZM9.04637 4.95663H2.95434C2.82742 4.95663 2.75127 5.05816 2.75127 5.1597V5.97197C2.75127 6.09888 2.82742 6.17503 2.95434 6.17503H9.04637C9.14791 6.17503 9.24944 6.09888 9.24944 5.97197V5.1597C9.24944 5.05816 9.14791 4.95663 9.04637 4.95663Z" fill="#333333"/>
</svg>
