<svg width="12" height="10" viewBox="0 0 12 10" fill="none" xmlns="http://www.w3.org/2000/svg">
<path d="M2.25293 0.5C1.01074 0.5 0.00292969 1.50781 0.00292969 2.75V7.25C0.00292969 8.49215 1.01074 9.5 2.25293 9.5H4.22168C4.36231 9.5 4.50293 9.38285 4.50293 9.21875V8.65625C4.50293 8.51562 4.36231 8.375 4.22168 8.375H2.25293C1.62012 8.375 1.12793 7.88281 1.12793 7.25V2.75C1.12793 2.14062 1.62012 1.625 2.25293 1.625H4.22168C4.36231 1.625 4.50293 1.50781 4.50293 1.34375V0.78125C4.50293 0.640625 4.36231 0.5 4.22168 0.5H2.25293ZM7.66703 0.96875L7.19824 1.4375C7.08106 1.53125 7.08106 1.71875 7.19824 1.83594L9.84668 4.39062H4.03418C3.87012 4.39062 3.75293 4.53125 3.75293 4.67188V5.32812C3.75293 5.49219 3.87012 5.60938 4.03418 5.60938H9.84668L7.19824 8.1875C7.08106 8.30465 7.08106 8.49215 7.19824 8.5859L7.66703 9.05465C7.76078 9.17188 7.94828 9.17188 8.06543 9.05465L11.9092 5.21094C12.0263 5.09375 12.0263 4.92969 11.9092 4.8125L8.06543 0.96875C7.94828 0.851562 7.76078 0.851562 7.66703 0.96875Z" fill="black"/>
</svg>
