<svg width="14" height="14" viewBox="0 0 14 14" fill="none" xmlns="http://www.w3.org/2000/svg">
<path d="M6.21289 6.41602L7.48242 6.77148C7.58398 6.79688 7.63477 6.87305 7.63477 6.97461C7.63477 7.10156 7.55859 7.20312 7.43164 7.20312H6.59375C6.51758 7.20312 6.41602 7.17773 6.33984 7.12695C6.21289 7.07617 6.06055 7.10156 5.98438 7.17773L5.52734 7.63477C5.40039 7.76172 5.42578 7.99023 5.57812 8.0918C5.80664 8.26953 6.08594 8.3457 6.39062 8.39648V8.82812C6.39062 9.0566 6.56836 9.23438 6.79688 9.23438H7.20312C7.40625 9.23438 7.60938 9.0566 7.60938 8.82812V8.39648C8.37109 8.29492 8.95504 7.60938 8.85348 6.79688C8.77734 6.21289 8.32031 5.75586 7.76172 5.57812L6.49219 5.22266C6.39062 5.19727 6.33984 5.0957 6.33984 5.01953C6.33984 4.89258 6.44141 4.79102 6.54297 4.79102H7.38086C7.48242 4.79102 7.55859 4.81641 7.63477 4.86719C7.76172 4.91797 7.91406 4.89258 7.99023 4.81641L8.44727 4.35938C8.57422 4.23242 8.57422 4.00391 8.39648 3.90234C8.16797 3.72461 7.88867 3.64844 7.60938 3.59766V3.14062C7.60938 2.9375 7.40625 2.73438 7.20312 2.73438H6.79688C6.56836 2.73438 6.39062 2.9375 6.39062 3.14062V3.59766C5.60352 3.69922 5.01953 4.38477 5.12109 5.19727C5.19727 5.78125 5.6543 6.23828 6.21289 6.41602ZM12.6875 8.625H11.7988C12.2305 7.86328 12.4844 6.94922 12.4844 5.98438C12.4844 2.96289 10.0215 0.5 7 0.5C3.95312 0.5 1.51562 2.96289 1.51562 5.98438C1.51562 6.94922 1.74414 7.86328 2.17578 8.625H1.3125C0.855469 8.625 0.5 9.08203 0.5 9.61527V12.5352C0.5 13.0684 0.855469 13.5 1.3125 13.5H12.6875C13.1191 13.5 13.5 13.0684 13.5 12.5352V9.61527C13.5 9.08203 13.1191 8.625 12.6875 8.625ZM7 1.71875C9.33594 1.71875 11.2656 3.64844 11.2656 5.98438C11.2656 8.3457 9.33594 10.25 7 10.25C4.63867 10.25 2.73438 8.3457 2.73438 5.98438C2.73438 3.64844 4.63867 1.71875 7 1.71875ZM12.2812 12.2812H1.71875V9.84375H3.08984C3.39453 10.1738 3.75 10.4278 4.13086 10.6562H3.14062C3.01367 10.6562 2.9375 10.7578 2.9375 10.8594V11.2656C2.9375 11.3925 3.01367 11.4688 3.14062 11.4688H10.8594C10.9609 11.4688 11.0625 11.3925 11.0625 11.2656V10.8594C11.0625 10.7578 10.9609 10.6562 10.8594 10.6562H9.84375C10.2247 10.4278 10.58 10.1738 10.8847 9.84375H12.2812V12.2812Z" fill="black"/>
</svg>
