<svg width="20" height="20" viewBox="0 0 20 20" fill="none" xmlns="http://www.w3.org/2000/svg">
<path opacity="0.6" d="M15 11.731C16.79 11.384 18 10.741 18 10V8.666C17.275 9.178 16.21 9.528 15 9.744V11.731ZM14.853 8.759C16.728 8.422 18 7.76 18 7V5.666C16.89 6.45 14.984 6.872 12.978 6.972C13.9 7.419 14.578 8.019 14.853 8.759ZM18 4C18 2.897 15.312 2 12 2C8.687 2 6 2.897 6 4C6 5.103 8.688 6 12 6C15.313 6 18 5.103 18 4Z" fill="#FFC000"/>
<path d="M8 12C11.313 12 14 10.881 14 9.5C14 8.119 11.312 7 8 7C4.687 7 2 8.119 2 9.5C2 10.881 4.688 12 8 12ZM2 14.666V16C2 17.103 4.688 18 8 18C11.313 18 14 17.103 14 16V14.666C12.71 15.575 10.35 16 8 16C5.65 16 3.29 15.575 2 14.666ZM2 11.387V13C2 14.103 4.688 15 8 15C11.313 15 14 14.103 14 13V11.387C12.71 12.45 10.347 13 8 13C5.653 13 3.29 12.45 2 11.387Z" fill="#FFC000"/>
</svg>
