<svg width="24" height="24" viewBox="0 0 24 24" fill="none" xmlns="http://www.w3.org/2000/svg">
<path d="M5.39989 14.9999C5.39989 15.3191 5.41549 15.6335 5.44549 15.9455C4.35178 15.3846 3.40612 14.5731 2.68562 13.5772C1.96512 12.5814 1.49017 11.4293 1.2995 10.215C1.10882 9.00074 1.20783 7.75857 1.58844 6.58982C1.96905 5.42106 2.62049 4.3588 3.48965 3.48965C4.3588 2.62049 5.42106 1.96905 6.58982 1.58844C7.75857 1.20783 9.00074 1.10882 10.215 1.2995C11.4293 1.49017 12.5814 1.96512 13.5772 2.68562C14.5731 3.40612 15.3846 4.35178 15.9455 5.44549C14.6115 5.31345 13.2646 5.46226 11.9916 5.88233C10.7186 6.3024 9.54768 6.98442 8.55425 7.88448C7.56082 8.78453 6.7669 9.88267 6.22362 11.1082C5.68034 12.3337 5.39974 13.6594 5.39989 14.9999Z" fill="#FFC000"/>
<path d="M15.0002 22.8002C17.0689 22.8002 19.0528 21.9784 20.5156 20.5156C21.9784 19.0528 22.8002 17.0689 22.8002 15.0002C22.8002 12.9315 21.9784 10.9475 20.5156 9.48476C19.0528 8.02198 17.0689 7.2002 15.0002 7.2002C12.9315 7.2002 10.9475 8.02198 9.48476 9.48476C8.02198 10.9475 7.2002 12.9315 7.2002 15.0002C7.2002 17.0689 8.02198 19.0528 9.48476 20.5156C10.9475 21.9784 12.9315 22.8002 15.0002 22.8002Z" fill="#FFC000"/>
</svg>
