<svg width="71" height="26" viewBox="0 0 71 26" fill="none" xmlns="http://www.w3.org/2000/svg">
<path fill-rule="evenodd" clip-rule="evenodd" d="M17.5268 22.5989C19.7279 22.5989 22.1158 23.3521 24.7597 25.6896C25.0246 25.9236 25.3772 25.6327 25.1456 25.3419C22.5481 22.0683 20.1455 21.4451 17.7494 20.9186C14.8179 20.2735 13.3108 18.6274 12.2602 16.8204C12.0514 16.4613 11.9571 16.5246 11.9384 16.9869C11.9149 17.5516 11.9547 18.2999 12.0814 19.0361C11.9628 19.0409 11.8442 19.0401 11.7239 19.0401C7.53144 19.0401 4.13194 15.6471 4.13194 11.4619C4.13194 7.27756 7.53145 3.88538 11.7248 3.88538C15.9173 3.88538 19.3168 7.27756 19.3168 11.4619C19.3168 11.7601 19.3021 12.0551 19.268 12.3435C18.7139 12.2436 17.6227 12.2322 16.8573 12.298C16.5697 12.3232 16.6103 12.4572 16.8281 12.4963C19.3379 12.9488 21.0612 14.5015 21.4561 17.3184C21.4642 17.3834 21.5503 17.4021 21.5836 17.3461C22.6508 15.5691 23.2129 13.5347 23.2094 11.4619C23.2094 5.13256 18.0671 0 11.7248 0C5.38157 0 0.239258 5.13175 0.239258 11.4619C0.239258 17.7929 5.38157 22.9255 11.7248 22.9255C13.4066 22.9255 15.0771 22.5989 17.5268 22.5989ZM18.3816 18.4373C18.8926 18.8679 19.0478 19.3806 18.7781 19.7421C18.6278 19.9404 18.384 20.0501 18.0915 20.0501C17.8062 20.0501 17.5298 19.9501 17.3107 19.7673C16.8459 19.3619 16.7094 18.7054 17.0125 18.3324C17.1311 18.1862 17.3237 18.1058 17.5544 18.1058C17.8348 18.1058 18.1289 18.2236 18.3816 18.4373ZM20.7394 17.342C20.8142 17.8441 20.6558 18.0521 20.4957 18.0521C20.321 18.0521 20.1024 17.849 19.8449 17.4468C19.5898 17.0503 19.4963 16.5953 19.6231 16.3654C19.7059 16.2134 19.8806 16.1468 20.1008 16.2305C20.5274 16.3906 20.6939 17.0422 20.7394 17.342ZM36.6596 14.7176L35.3352 13.1276C35.3041 13.0901 35.2844 13.0445 35.2783 12.9962C35.2722 12.9479 35.2801 12.8989 35.3009 12.8548C35.3217 12.8108 35.3546 12.7737 35.3958 12.7477C35.437 12.7218 35.4848 12.7081 35.5334 12.7083H38.3033C38.4349 12.3167 38.5096 11.8982 38.5096 11.4627C38.5096 9.47213 37.0244 7.75531 34.9866 7.75531C32.9489 7.75531 31.4636 9.47213 31.4636 11.4627C31.4636 13.4534 32.9489 15.1466 34.9866 15.1466C35.6041 15.1466 36.1696 14.989 36.6604 14.7168L36.6596 14.7176ZM42.6509 17.4029C42.7948 17.5622 42.6769 17.8173 42.46 17.8173H39.4375C39.3768 17.8174 39.3167 17.8041 39.2617 17.7784C39.2067 17.7527 39.1579 17.7152 39.119 17.6686L38.6071 17.0536C37.5291 17.7527 36.2715 18.1241 34.9866 18.1228C31.3068 18.1228 28.3136 15.1353 28.3136 11.4627C28.3136 7.79025 31.3068 4.80269 34.9866 4.80269C38.6664 4.80269 41.6597 7.79025 41.6597 11.4627C41.6597 12.7871 41.2697 14.0205 40.5994 15.0589L42.6509 17.4029ZM70.5757 5.11062H68.1082C68.0214 5.11084 67.9382 5.14541 67.8769 5.20677C67.8155 5.26813 67.781 5.35129 67.7807 5.43806V17.4899C67.7807 17.6711 67.927 17.8173 68.1082 17.8173H70.5757C70.7569 17.8173 70.904 17.6711 70.904 17.4899V5.43725C70.904 5.35019 70.8694 5.2667 70.8079 5.20514C70.7463 5.14358 70.6628 5.109 70.5757 5.109V5.11062ZM66.4239 5.11062H63.6646C63.5945 5.11036 63.5262 5.13253 63.4696 5.17391C63.413 5.21528 63.3712 5.27369 63.3502 5.34056L61.1662 12.4629L58.7652 5.33244C58.7433 5.26739 58.7014 5.21089 58.6456 5.17094C58.5897 5.13099 58.5227 5.10961 58.4541 5.10981H56.5284C56.4597 5.10956 56.3926 5.13091 56.3366 5.17086C56.2806 5.2108 56.2386 5.26732 56.2164 5.33244L53.8163 12.4629L51.6323 5.34056C51.6115 5.27353 51.5697 5.21495 51.5131 5.17342C51.4565 5.13189 51.3881 5.1096 51.3179 5.10981H48.5578C48.506 5.1099 48.4549 5.12224 48.4087 5.14582C48.3625 5.1694 48.3226 5.20355 48.2921 5.2455C48.2617 5.28705 48.2417 5.33531 48.2337 5.38621C48.2258 5.43711 48.2302 5.48916 48.2466 5.538L52.301 17.5963C52.3457 17.7296 52.4716 17.8189 52.6122 17.8189H54.8027C54.9441 17.8189 55.0692 17.7296 55.1139 17.5971L57.4913 10.5519L59.8678 17.5963C59.9125 17.7296 60.0384 17.8189 60.179 17.8189H62.3703C62.5117 17.8189 62.6368 17.7296 62.6815 17.5963L66.7359 5.538C66.7522 5.48921 66.7567 5.43721 66.7489 5.38634C66.7412 5.33546 66.7214 5.28718 66.6912 5.2455C66.6606 5.20349 66.6205 5.1693 66.5742 5.14572C66.5279 5.12214 66.4767 5.10984 66.4247 5.10981L66.4239 5.11062ZM47.2018 5.43806V17.4899C47.2018 17.6711 47.0555 17.8173 46.8735 17.8173H44.4068C44.3198 17.8173 44.2365 17.7828 44.1749 17.7215C44.1134 17.6601 44.0787 17.5768 44.0785 17.4899V5.43725C44.0785 5.25606 44.2248 5.109 44.4068 5.109H46.8735C47.0547 5.109 47.2018 5.25525 47.2018 5.43725V5.43806Z" fill="#FF8C00"/>
</svg>
