<svg width="16" height="14" viewBox="0 0 16 14" fill="none" xmlns="http://www.w3.org/2000/svg">
<path d="M14.6762 5.15191V1.195C14.6762 0.960712 14.4939 0.335938 13.8432 0.335938C13.6349 0.335938 13.4526 0.414034 13.3225 0.544196L11.0838 2.31439C9.9904 3.19949 8.58465 3.66807 7.17891 3.66807H2.18071C1.24355 3.66807 0.514648 4.42301 0.514648 5.33413V7.83323C0.514648 8.7704 1.24355 9.4993 2.18071 9.4993L2.15468 10.3323C2.15468 11.3736 2.38897 12.3628 2.83152 13.222C2.96168 13.5083 3.24804 13.6645 3.56042 13.6645H6.31985C6.99669 13.6645 7.4132 12.9096 6.99669 12.3628C6.58017 11.7901 6.31985 11.1133 6.31985 10.3323C6.31985 10.0459 6.37191 9.7857 6.42397 9.4993H7.17891C8.58465 9.4993 9.9904 9.99395 11.0838 10.879L13.3225 12.6492C13.4526 12.7794 13.6349 12.8314 13.8172 12.8314C14.4679 12.8314 14.6502 12.2587 14.6502 11.9984V8.04149C15.1709 7.75514 15.4832 7.20846 15.4832 6.60972C15.5092 5.98494 15.1709 5.43826 14.6762 5.15191ZM3.82075 12.4149C3.53439 11.7641 3.40423 11.0612 3.40423 10.3323C3.40423 9.96788 3.4563 9.68157 3.48233 9.4993H5.17443C5.09633 9.7857 5.0703 10.072 5.0703 10.3323C5.0703 11.0872 5.25252 11.7901 5.56491 12.4149H3.82075ZM6.76239 8.24975H2.18071C1.94642 8.24975 1.7642 8.06752 1.7642 7.83323V5.33413C1.7642 5.12588 1.94642 4.91762 2.18071 4.91762H6.76239V8.24975ZM13.4267 11.1394L11.8647 9.91582C10.7714 9.03072 9.41769 8.48404 8.01194 8.32785V4.86555C9.41769 4.70936 10.7714 4.16268 11.8647 3.27758L13.4267 2.05407V11.1394Z" fill="#333333"/>
</svg>
