<svg width="16" height="14" viewBox="0 0 16 14" fill="none" xmlns="http://www.w3.org/2000/svg">
<path d="M5.4385 12.5566C6.01289 12.5566 6.46241 12.4567 6.86199 12.3569C7.1367 12.3068 7.31151 12.0572 7.31151 11.7824V10.9833C7.56124 10.8834 7.78604 10.7586 7.98583 10.6086L8.66007 10.9833C8.88487 11.1331 9.20949 11.0832 9.38434 10.8834C10.0836 10.1592 10.608 9.38498 10.8078 8.36111C10.8577 8.13631 10.7578 7.88658 10.533 7.73674L9.88381 7.33716C9.90874 7.06245 9.90874 6.81272 9.88381 6.56299L10.533 6.13844C10.7578 6.01357 10.8577 5.76384 10.8078 5.5141C10.608 4.46522 10.0336 3.71602 9.38434 3.01676C9.20949 2.81698 8.88487 2.76703 8.66007 2.8919L7.98583 3.29147C7.78604 3.14163 7.56124 3.01676 7.31151 2.8919V2.14269C7.31151 1.86799 7.1367 1.61825 6.86199 1.56831C5.73818 1.2936 5.11385 1.2936 3.99005 1.56831C3.74031 1.61825 3.54053 1.86799 3.54053 2.14269V2.8919C3.31577 2.99179 3.091 3.14163 2.86624 3.29147L2.19196 2.8919C1.9672 2.76703 1.66752 2.792 1.46773 3.01676C0.593665 3.94078 0.368904 4.46522 0.04425 5.46416C-0.0556436 5.73886 0.0692234 6.03854 0.318957 6.16341L0.993239 6.56299C0.968266 6.81272 0.968266 7.06245 0.993239 7.33716L0.318957 7.71176C0.0692234 7.83663 -0.0556436 8.13631 0.04425 8.41098C0.368904 9.40991 0.593665 9.93439 1.46773 10.8834C1.66752 11.0832 1.9672 11.1081 2.19196 10.9833L2.86624 10.5837C3.091 10.7335 3.31577 10.8834 3.54053 10.9833V11.7824C3.54053 12.0572 3.74031 12.2819 3.99005 12.3569C4.38962 12.4567 4.83914 12.5566 5.4385 12.5566ZM4.73925 11.283V10.1592L4.33967 10.0093C3.96507 9.88445 3.61545 9.68466 3.31577 9.43493L2.99111 9.16026L2.01715 9.70959C1.71747 9.36005 1.49271 8.93546 1.31789 8.51087L2.29186 7.96154L2.21694 7.53695C2.14202 7.13737 2.14202 6.7378 2.21694 6.33822L2.29186 5.93865L1.31789 5.36426C1.49271 4.93971 1.71747 4.54014 2.01715 4.16554L2.99111 4.73993L3.31577 4.46522C3.61545 4.19051 3.96507 3.99073 4.33967 3.86586L4.73925 3.71602V2.59221C5.18877 2.54227 5.66326 2.54227 6.11279 2.59221V3.71602L6.51236 3.86586C6.88696 3.99073 7.23655 4.19051 7.53623 4.46522L7.86092 4.73993L8.83485 4.16554C9.13453 4.54014 9.35933 4.93971 9.5341 5.36426L8.56018 5.91368L8.63506 6.33822C8.71002 6.7378 8.71002 7.13737 8.63506 7.53695L8.56018 7.96154L9.5341 8.51087C9.35933 8.93546 9.13453 9.33503 8.83485 9.70959L7.86092 9.13525L7.53623 9.40991C7.23655 9.68466 6.88696 9.88445 6.51236 10.0093L6.11279 10.1592V11.283C5.66326 11.3579 5.18877 11.3579 4.73925 11.283ZM5.41353 9.16026C5.98792 9.16026 6.53733 8.93546 6.98686 8.51087C7.83591 7.66182 7.83591 6.2633 6.98686 5.38924C6.11279 4.54014 4.71428 4.54014 3.86518 5.38924C2.99111 6.2633 2.99111 7.66182 3.86518 8.51087C4.28973 8.93546 4.86412 9.16026 5.41353 9.16026ZM5.41353 5.93865C5.66326 5.93865 5.93797 6.03854 6.13776 6.23833C6.51236 6.63791 6.51236 7.26224 6.13776 7.66182C5.73818 8.06143 5.08888 8.06143 4.71428 7.66182C4.3147 7.26224 4.3147 6.63791 4.71428 6.23833C4.91406 6.03854 5.1638 5.93865 5.41353 5.93865ZM15.9523 2.71708C15.9273 2.59221 15.8025 2.46735 15.6526 2.46735H15.253C15.1782 2.24259 15.0282 1.99285 14.8785 1.81804L15.0783 1.46841C15.1281 1.34354 15.1032 1.16873 15.0033 1.06884C14.7786 0.894023 14.5038 0.744183 14.2291 0.619316C14.0793 0.569369 13.9294 0.619316 13.8545 0.769156L13.6548 1.09381C13.405 1.06884 13.1303 1.06884 12.8806 1.09381L12.6808 0.769156C12.6059 0.619316 12.456 0.569369 12.3062 0.619316C12.0314 0.744183 11.7568 0.894023 11.532 1.06884C11.4071 1.16873 11.3822 1.34354 11.4571 1.46841L11.6569 1.81804C11.4821 1.99285 11.3572 2.24259 11.2823 2.46735H10.8827C10.7328 2.46735 10.608 2.59221 10.5831 2.74206C10.533 3.04174 10.533 3.34142 10.5831 3.6411C10.608 3.79094 10.7328 3.89083 10.8827 3.89083H11.2823C11.3572 4.14057 11.4821 4.36533 11.6569 4.56511L11.4571 4.91474C11.3822 5.03961 11.4071 5.18945 11.532 5.28934C11.7568 5.48913 12.0314 5.63897 12.3062 5.73886C12.456 5.78881 12.6059 5.73886 12.6808 5.614L12.8806 5.26437C13.1303 5.31432 13.405 5.31432 13.6548 5.26437L13.8545 5.614C13.9294 5.73886 14.0793 5.78881 14.2291 5.73886C14.5038 5.63897 14.7786 5.48913 15.0033 5.28934C15.1032 5.18945 15.1532 5.03961 15.0783 4.91474L14.8785 4.56511C15.0282 4.36533 15.1782 4.14057 15.253 3.89083H15.6526C15.8025 3.89083 15.9273 3.79094 15.9523 3.6411C16.0023 3.31644 16.0023 3.01676 15.9523 2.71708ZM13.2552 3.99073C12.8306 3.99073 12.456 3.61612 12.456 3.19158C12.456 2.74206 12.8306 2.39243 13.2552 2.39243C13.7047 2.39243 14.0543 2.74206 14.0543 3.19158C14.0543 3.61612 13.7047 3.99073 13.2552 3.99073ZM15.9523 10.359C15.9273 10.2091 15.8025 10.1092 15.6526 10.1092H15.253C15.1782 9.85952 15.0282 9.63471 14.8785 9.43493L15.0783 9.0853C15.1281 8.96047 15.1032 8.81055 15.0033 8.71066C14.7786 8.51087 14.5038 8.36111 14.2042 8.26122C14.0793 8.21119 13.9294 8.26122 13.8545 8.38604L13.6548 8.73567C13.405 8.68573 13.1303 8.68573 12.8806 8.73567L12.6808 8.38604C12.6059 8.26122 12.456 8.21119 12.3062 8.26122C12.0314 8.36111 11.7568 8.51087 11.532 8.71066C11.4071 8.81055 11.3822 8.96047 11.4571 9.0853L11.6569 9.43493C11.4821 9.63471 11.3572 9.85952 11.2823 10.1092H10.8577C10.7328 10.1092 10.5831 10.2091 10.5831 10.359C10.533 10.6587 10.533 10.9833 10.5831 11.258C10.608 11.4078 10.7328 11.5077 10.8577 11.5077H11.2823C11.3572 11.7575 11.4821 11.9822 11.6569 12.182L11.4571 12.5316C11.3822 12.6565 11.4071 12.8313 11.532 12.9062C11.7568 13.106 12.0314 13.2559 12.3062 13.3807C12.456 13.4307 12.6059 13.3807 12.6808 13.2309L12.8806 12.8813C13.1303 12.9312 13.405 12.9312 13.6548 12.8813L13.8545 13.2309C13.9294 13.3558 14.0793 13.4307 14.2042 13.3807C14.5038 13.2559 14.7786 13.106 15.0033 12.9062C15.1032 12.8313 15.1532 12.6565 15.0783 12.5316L14.8785 12.182C15.0282 11.9822 15.1782 11.7575 15.253 11.5077H15.6526C15.8025 11.5077 15.9273 11.4078 15.9523 11.258C16.0023 10.9583 16.0023 10.6587 15.9523 10.359ZM13.2552 11.6076C12.8306 11.6076 12.456 11.258 12.456 10.8084C12.456 10.3839 12.8306 10.0093 13.2552 10.0093C13.7047 10.0093 14.0543 10.3839 14.0543 10.8084C14.0543 11.258 13.7047 11.6076 13.2552 11.6076Z" fill="black"/>
</svg>
