<svg width="16" height="15" viewBox="0 0 16 15" fill="none" xmlns="http://www.w3.org/2000/svg">
<path d="M15.2572 5.416C15.2323 5.33904 15.1863 5.27061 15.1244 5.21847C15.0625 5.16633 14.9873 5.13256 14.9072 5.121L10.3262 4.455L8.27723 0.304998C8.24141 0.232698 8.18611 0.171844 8.11755 0.129298C8.049 0.086753 7.96992 0.064209 7.88923 0.064209C7.80855 0.064209 7.72947 0.086753 7.66091 0.129298C7.59235 0.171844 7.53705 0.232698 7.50123 0.304998L5.45123 4.455L0.871231 5.121C0.791389 5.13269 0.716403 5.16646 0.654732 5.2185C0.593061 5.27054 0.547159 5.33878 0.522203 5.41552C0.497248 5.49226 0.494233 5.57444 0.513497 5.6528C0.532761 5.73116 0.573539 5.80258 0.631231 5.859L3.94623 9.091L3.16323 13.654C3.14971 13.7336 3.15869 13.8153 3.18917 13.89C3.21964 13.9648 3.27039 14.0295 3.3357 14.0769C3.401 14.1243 3.47826 14.1526 3.55875 14.1584C3.63924 14.1642 3.71976 14.1475 3.79123 14.11L7.88923 11.956L11.9862 14.11C12.0578 14.1476 12.1384 14.1644 12.219 14.1585C12.2996 14.1526 12.377 14.1243 12.4423 14.0767C12.5077 14.0292 12.5584 13.9643 12.5888 13.8894C12.6192 13.8145 12.628 13.7326 12.6142 13.653L11.8322 9.091L15.1472 5.859C15.205 5.80273 15.2459 5.73144 15.2653 5.65317C15.2848 5.5749 15.282 5.49276 15.2572 5.416Z" fill="#F0C015"/>
</svg>
