<svg width="21" height="20" viewBox="0 0 21 20" fill="none" xmlns="http://www.w3.org/2000/svg">
<g clip-path="url(#clip0_420_4801)">
<path d="M10.833 20C16.3558 20 20.833 15.5228 20.833 10C20.833 4.47717 16.3558 0 10.833 0C5.31017 0 0.833008 4.47717 0.833008 10C0.833008 15.5228 5.31017 20 10.833 20Z" fill="url(#paint0_linear_420_4801)"/>
<path fill-rule="evenodd" clip-rule="evenodd" d="M5.35985 9.89447C8.27506 8.62434 10.219 7.78701 11.1916 7.38246C13.9687 6.22734 14.5458 6.02672 14.9219 6.02009C15.0046 6.01863 15.1896 6.03913 15.3094 6.13634C15.4106 6.21842 15.4384 6.32934 15.4517 6.40713C15.4651 6.48497 15.4816 6.6623 15.4684 6.80084C15.318 8.38205 14.6668 12.2193 14.3355 13.9903C14.1953 14.7397 13.9193 14.991 13.6521 15.0155C13.0714 15.069 12.6304 14.6318 12.0679 14.2631C11.1878 13.6861 10.6906 13.327 9.83627 12.764C8.84898 12.1134 9.48902 11.7558 10.0517 11.1714C10.1989 11.0184 12.7576 8.69113 12.8071 8.48001C12.8133 8.45359 12.8191 8.35517 12.7606 8.30322C12.7021 8.25126 12.6158 8.26901 12.5535 8.28313C12.4653 8.30317 11.0592 9.23251 8.33548 11.0711C7.9364 11.3452 7.5749 11.4787 7.25102 11.4717C6.89398 11.464 6.20715 11.2698 5.69656 11.1038C5.07031 10.9003 4.57257 10.7927 4.61591 10.4469C4.63849 10.2668 4.88647 10.0827 5.35985 9.89447Z" fill="white"/>
</g>
<defs>
<linearGradient id="paint0_linear_420_4801" x1="10.833" y1="0" x2="10.833" y2="19.8517" gradientUnits="userSpaceOnUse">
<stop stop-color="#2AABEE"/>
<stop offset="1" stop-color="#229ED9"/>
</linearGradient>
<clipPath id="clip0_420_4801">
<rect width="20" height="20" fill="white" transform="translate(0.833008)"/>
</clipPath>
</defs>
</svg>
