<svg width="21" height="20" viewBox="0 0 21 20" fill="none" xmlns="http://www.w3.org/2000/svg">
<g clip-path="url(#clip0_420_4836)">
<path d="M18.8333 0H2.16667C1.24619 0 0.5 0.746192 0.5 1.66667V18.3333C0.5 19.2538 1.24619 20 2.16667 20H18.8333C19.7538 20 20.5 19.2538 20.5 18.3333V1.66667C20.5 0.746192 19.7538 0 18.8333 0Z" fill="black"/>
<path d="M9.00343 8.81853V8.3012C8.82618 8.27749 8.64597 8.2627 8.45989 8.2627C6.24143 8.25978 4.43652 10.0662 4.43652 12.2894C4.43652 13.6524 5.11593 14.8587 6.15576 15.5889C5.48518 14.8705 5.07459 13.9037 5.07459 12.8453C5.07459 10.6545 6.82926 8.86878 9.00343 8.81853Z" fill="#25F4EE"/>
<path d="M9.10114 14.6841C10.0907 14.6841 10.9001 13.8948 10.9356 12.9132L10.9386 4.14127H12.5396C12.5071 3.96092 12.4894 3.77467 12.4894 3.58545H10.3034L10.3004 12.3574C10.265 13.3389 9.4556 14.1283 8.46601 14.1283C8.1588 14.1283 7.8693 14.0514 7.6123 13.9154C7.94314 14.3796 8.48668 14.6841 9.10114 14.6841Z" fill="#25F4EE"/>
<path d="M15.5322 7.1185V6.63071C14.9207 6.63071 14.3535 6.45034 13.875 6.13696C14.3004 6.6248 14.8764 6.97959 15.5322 7.1185Z" fill="#25F4EE"/>
<path d="M13.8752 6.13699C13.4085 5.60186 13.1278 4.90415 13.1278 4.14136H12.543C12.6936 4.97511 13.1899 5.69057 13.8752 6.13699Z" fill="#FE2C55"/>
<path d="M8.46339 10.4474C7.45014 10.4474 6.62598 11.2723 6.62598 12.2864C6.62598 12.993 7.02773 13.6079 7.61264 13.9154C7.39402 13.6138 7.26406 13.2443 7.26406 12.8422C7.26406 11.8281 8.08823 11.0033 9.10148 11.0033C9.29052 11.0033 9.47364 11.0358 9.64498 11.089V8.85393C9.46773 8.83026 9.28756 8.81543 9.10148 8.81543C9.06898 8.81543 9.03944 8.81843 9.00694 8.81843V10.5332C8.83264 10.48 8.65244 10.4474 8.46339 10.4474Z" fill="#FE2C55"/>
<path d="M15.5323 7.11865V8.81861C14.3979 8.81861 13.3463 8.45499 12.4896 7.84003V12.2896C12.4896 14.5099 10.6848 16.3193 8.46333 16.3193C7.60667 16.3193 6.80908 16.0473 6.15625 15.589C6.89179 16.3784 7.94046 16.8751 9.10142 16.8751C11.3198 16.8751 13.1277 15.0687 13.1277 12.8454V8.39586C13.9844 9.01082 15.036 9.37444 16.1703 9.37444V7.18665C15.9488 7.18665 15.7361 7.16299 15.5323 7.11865Z" fill="#FE2C55"/>
<path d="M12.4897 12.2894V7.8399C13.3464 8.45486 14.398 8.81853 15.5324 8.81853V7.11853C14.8766 6.97961 14.3005 6.62482 13.8752 6.13699C13.1898 5.69057 12.6965 4.97511 12.5399 4.14136H10.9389L10.9359 12.9132C10.9005 13.8948 10.0911 14.6842 9.10153 14.6842C8.48707 14.6842 7.94649 14.3797 7.60974 13.9185C7.02482 13.608 6.62307 12.9961 6.62307 12.2894C6.62307 11.2754 7.44724 10.4505 8.46049 10.4505C8.64953 10.4505 8.8327 10.483 9.00403 10.5362V8.82149C6.82986 8.86878 5.0752 10.6545 5.0752 12.8453C5.0752 13.9037 5.48578 14.8675 6.15636 15.5889C6.8092 16.0472 7.60678 16.3192 8.46345 16.3192C10.6819 16.3192 12.4897 14.5098 12.4897 12.2894Z" fill="white"/>
</g>
<defs>
<clipPath id="clip0_420_4836">
<rect width="20" height="20" fill="white" transform="translate(0.5)"/>
</clipPath>
</defs>
</svg>
