<svg width="39" height="32" viewBox="0 0 39 32" fill="none" xmlns="http://www.w3.org/2000/svg">
<path d="M35.0375 8.0455C35.0608 8.38587 35.0608 8.72623 35.0608 9.0698C35.0608 19.5372 27.1652 31.6094 12.7277 31.6094V31.6031C8.46287 31.6094 4.28661 30.3765 0.696289 28.0518C1.31644 28.127 1.93969 28.1647 2.5645 28.1662C6.09887 28.1694 9.53225 26.9726 12.3128 24.7686C8.95407 24.7043 6.00872 22.4941 4.97981 19.2674C6.15638 19.4964 7.36869 19.4494 8.52352 19.131C4.86169 18.3843 2.22723 15.1372 2.22723 11.3662C2.22723 11.3318 2.22723 11.2988 2.22723 11.2659C3.31831 11.8792 4.53996 12.2196 5.78957 12.2572C2.34069 9.93096 1.27758 5.30037 3.36028 1.67998C7.34538 6.629 13.2251 9.63765 19.5369 9.95605C18.9043 7.20468 19.7685 4.32155 21.8077 2.38743C24.969 -0.611783 29.9411 -0.458058 32.9128 2.73096C34.6707 2.38116 36.3555 1.73017 37.8973 0.807825C37.3114 2.64155 36.085 4.1992 34.4469 5.189C36.0027 5.0039 37.5227 4.58351 38.9542 3.94194C37.9004 5.53566 36.5731 6.9239 35.0375 8.0455Z" fill="#1D9BF0"/>
</svg>
