<svg width="21" height="20" viewBox="0 0 21 20" fill="none" xmlns="http://www.w3.org/2000/svg">
<g clip-path="url(#clip0_420_4820)">
<path d="M0.666992 9.6C0.666992 5.0745 0.666992 2.81177 2.07288 1.40589C3.47877 0 5.74149 0 10.267 0H11.067C15.5925 0 17.8552 0 19.2611 1.40589C20.667 2.81177 20.667 5.0745 20.667 9.6V10.4C20.667 14.9255 20.667 17.1882 19.2611 18.5941C17.8552 20 15.5925 20 11.067 20H10.267C5.74149 20 3.47877 20 2.07288 18.5941C0.666992 17.1882 0.666992 14.9255 0.666992 10.4V9.6Z" fill="#0077FF"/>
<path d="M11.3086 14.4085C6.75028 14.4085 4.15033 11.2835 4.04199 6.0835H6.32533C6.40033 9.90016 8.08362 11.5168 9.41695 11.8502V6.0835H11.567V9.37516C12.8837 9.2335 14.2669 7.7335 14.7335 6.0835H16.8836C16.5252 8.11683 15.0252 9.61683 13.9586 10.2335C15.0252 10.7335 16.7337 12.0418 17.3837 14.4085H15.0169C14.5086 12.8252 13.242 11.6002 11.567 11.4335V14.4085H11.3086Z" fill="white"/>
</g>
<defs>
<clipPath id="clip0_420_4820">
<rect width="20" height="20" fill="white" transform="translate(0.666992)"/>
</clipPath>
</defs>
</svg>
