<svg width="29" height="20" viewBox="0 0 29 20" fill="none" xmlns="http://www.w3.org/2000/svg">
<g clip-path="url(#clip0_420_4854)">
<path d="M27.9779 3.12258C27.8183 2.51866 27.5037 1.96749 27.0656 1.52422C26.6275 1.08095 26.0813 0.761129 25.4817 0.596777C23.2742 0 14.4507 0 14.4507 0C14.4507 0 5.62713 0 3.41964 0.596777C2.81998 0.761129 2.27378 1.08095 1.8357 1.52422C1.39761 1.96749 1.08301 2.51866 0.923384 3.12258C0.333008 5.35161 0.333008 10 0.333008 10C0.333008 10 0.333008 14.6484 0.923384 16.8774C1.08301 17.4814 1.39761 18.0325 1.8357 18.4758C2.27378 18.9191 2.81998 19.2389 3.41964 19.4032C5.62713 20 14.4507 20 14.4507 20C14.4507 20 23.2742 20 25.4817 19.4032C26.0813 19.2389 26.6275 18.9191 27.0656 18.4758C27.5037 18.0325 27.8183 17.4814 27.9779 16.8774C28.5683 14.6484 28.5683 10 28.5683 10C28.5683 10 28.5683 5.35161 27.9779 3.12258Z" fill="#FF0000"/>
<path d="M11.5625 14.221L18.9422 10L11.5625 5.77905V14.221Z" fill="white"/>
</g>
<defs>
<clipPath id="clip0_420_4854">
<rect width="28.2353" height="20" fill="white" transform="translate(0.333008)"/>
</clipPath>
</defs>
</svg>
